<?xml version="1.0" encoding="utf-8"?>
<!-- Generator: Adobe Illustrator 12.0.0, SVG Export Plug-In . SVG Version: 6.00 Build 51448)  -->
<!DOCTYPE svg PUBLIC "-//W3C//DTD SVG 1.1//EN" "http://www.w3.org/Graphics/SVG/1.1/DTD/svg11.dtd" [
	<!ENTITY ns_svg "http://www.w3.org/2000/svg">
	<!ENTITY ns_xlink "http://www.w3.org/1999/xlink">
]>
<svg  version="1.1" id="Layer_1" xmlns="&ns_svg;" xmlns:xlink="&ns_xlink;" width="281.686" height="88.649"
	 viewBox="0 0 281.686 88.649" overflow="visible" enable-background="new 0 0 281.686 88.649" xml:space="preserve">
<path fill="#04d178" d="M117.286,4.866h7.499c0.253,0,0.77,0.025,1.547,0.076c0.836,0.12,1.427,0.223,1.773,0.31
	c1.226,0.371,2.32,1.04,3.283,2.006c1.006,1,1.508,2.582,1.508,4.748c0,2.186-0.502,3.778-1.508,4.776
	c-1.038,1.048-2.132,1.718-3.283,2.006c-0.66,0.177-1.251,0.28-1.773,0.311c-0.417,0.05-0.933,0.075-1.547,0.075h-4.867v12.698
	h-2.631V4.866z M119.917,17.019h4.755c0.434,0,0.78-0.013,1.037-0.038c0.403-0.038,0.831-0.116,1.283-0.235
	c0.767-0.226,1.5-0.688,2.199-1.385c0.671-0.709,1.009-1.828,1.009-3.354c0-1.519-0.35-2.628-1.047-3.325
	c-0.71-0.703-1.447-1.165-2.208-1.385c-0.641-0.112-1.054-0.179-1.236-0.198c-0.515-0.05-0.862-0.075-1.037-0.075h-4.755V17.019z"/>
<path fill="#04d178" d="M142.098,8.322c2.637-2.826,6.188-4.239,10.655-4.239c3.831,0,7.225,1.285,10.185,3.854
	c2.934,2.556,4.398,6.028,4.398,10.418c0,4.402-1.465,7.875-4.398,10.417c-2.928,2.551-6.323,3.824-10.185,3.824
	c-3.959,0-7.38-1.274-10.268-3.824c-2.884-2.536-4.325-6.008-4.325-10.417C138.16,14.535,139.472,11.191,142.098,8.322z
	 M144.453,27.162c2.292,2.217,5.058,3.325,8.3,3.325c3.197,0,5.958-1.108,8.289-3.325c2.343-2.215,3.516-5.148,3.516-8.797
	c0-3.642-1.173-6.571-3.516-8.788c-2.368-2.217-5.13-3.325-8.289-3.325c-3.204,0-5.97,1.108-8.3,3.325
	c-2.344,2.223-3.516,5.152-3.516,8.788C140.937,22.046,142.109,24.978,144.453,27.162z"/>
<path fill="#04d178" d="M174.23,4.866h7.499c0.251,0,0.767,0.025,1.547,0.076c0.836,0.12,1.428,0.223,1.774,0.31
	c1.227,0.371,2.319,1.04,3.281,2.006c1.006,1,1.511,2.582,1.511,4.748c0,2.186-0.505,3.778-1.511,4.776
	c-1.038,1.048-2.13,1.718-3.281,2.006c-0.661,0.177-1.253,0.28-1.774,0.311c-0.415,0.05-0.931,0.075-1.547,0.075h-4.867v12.698
	h-2.632V4.866L174.23,4.866z M176.863,17.019h4.755c0.433,0,0.78-0.013,1.037-0.038c0.401-0.038,0.828-0.116,1.283-0.235
	c0.767-0.226,1.5-0.688,2.198-1.385c0.672-0.709,1.008-1.828,1.008-3.354c0-1.519-0.349-2.628-1.047-3.325
	c-0.711-0.703-1.445-1.165-2.206-1.385c-0.643-0.112-1.057-0.179-1.236-0.198c-0.515-0.05-0.863-0.075-1.037-0.075h-4.755V17.019z"
	/>
<path fill="#04d178" d="M198.574,4.866v17.323c0,2.819,0.59,4.838,1.771,6.057c1.211,1.256,2.535,1.976,3.973,2.157
	c0.237,0.057,0.392,0.085,0.462,0.085h0.546h0.113h0.112h0.038h0.085h0.075h0.535c0.063,0,0.271-0.028,0.621-0.085
	c1.382-0.226,2.653-0.958,3.815-2.195c1.186-1.262,1.779-3.268,1.779-6.019V4.866h2.618v16.931c0,3.396-0.658,5.863-1.969,7.4
	c-1.281,1.513-2.706,2.505-4.275,2.976c-0.306,0.075-0.889,0.18-1.742,0.311c-0.576,0.075-1.104,0.112-1.581,0.112
	c-0.508,0-1.035-0.038-1.582-0.112c-0.829-0.12-1.394-0.223-1.695-0.311c-1.562-0.408-3.017-1.399-4.36-2.976
	c-1.311-1.537-1.967-4.005-1.967-7.4V4.866H198.574z"/>
<path fill="#04d178" d="M222.8,4.866h2.631v24.85h8.732v2.156H222.8V4.866z"/>
<path fill="#04d178" d="M248.482,4.083l12.083,27.791h-2.696l-3.75-8.797h-11.312l-3.741,8.797h-2.706L248.482,4.083z
	 M253.195,20.918l-4.713-11.077l-4.749,11.077H253.195z"/>
<path fill="#04d178" d="M265.696,4.866h7.223c0.422,0,0.938,0.038,1.547,0.113c0.417,0.05,1.062,0.217,1.936,0.5
	c1.012,0.37,1.976,1.08,2.894,2.129c0.879,1.037,1.317,2.553,1.317,4.549c0,1.778-0.619,3.385-1.857,4.823
	c-1.245,1.431-3.46,2.242-6.647,2.43l9.579,12.462h-3.084l-9.276-12.423h-1.001v12.423h-2.629V4.866L265.696,4.866z M271.031,17.292
	c2.66,0,4.477-0.502,5.444-1.507c0.955-1.03,1.434-2.239,1.434-3.627c0-2.179-0.645-3.582-1.933-4.21
	c-1.285-0.615-2.728-0.923-4.331-0.923h-3.32v10.267H271.031z"/>
<path fill="#04d178" d="M119.203,50.077l11.27,24.079l11.27-24.079l3.665,28.092h-2.432l-2.583-19.987l-9.92,21.072l-9.913-21.072
	l-2.592,19.987h-2.431L119.203,50.077z"/>
<path fill="#04d178" d="M154.437,54.619c2.637-2.825,6.188-4.239,10.655-4.239c3.831,0,7.225,1.284,10.185,3.854
	c2.934,2.556,4.399,6.027,4.399,10.417c0,4.402-1.466,7.875-4.399,10.418c-2.927,2.55-6.323,3.823-10.185,3.823
	c-3.959,0-7.38-1.274-10.268-3.823c-2.884-2.536-4.325-6.009-4.325-10.418C150.499,60.832,151.81,57.488,154.437,54.619z
	 M156.792,73.458c2.292,2.218,5.058,3.325,8.3,3.325c3.197,0,5.959-1.107,8.289-3.325c2.343-2.215,3.516-5.148,3.516-8.797
	c0-3.642-1.173-6.571-3.516-8.787c-2.368-2.217-5.13-3.325-8.289-3.325c-3.204,0-5.97,1.108-8.3,3.325
	c-2.344,2.223-3.516,5.152-3.516,8.787C153.276,68.342,154.448,71.274,156.792,73.458z"/>
<path fill="#04d178" d="M183.615,51.162h2.854l7.68,21.336l7.679-21.336h2.855l-10.534,28.092L183.615,51.162z"/>
<path fill="#04d178" d="M209.868,51.162h2.622v27.007h-2.622V51.162z"/>
<path fill="#04d178" d="M220.626,51.146h14.468v2.157h-11.839v8.65h11.416v2.158h-11.416V76.01h11.839v2.158h-14.468V51.146z"/>
<path fill="#04d178" d="M253.623,55.714c-0.051-0.05-0.077-0.113-0.077-0.188c-0.011-0.031-0.03-0.065-0.057-0.103
	c-0.024-0.038-0.043-0.069-0.057-0.095c-0.377-0.684-0.932-1.316-1.66-1.894c-0.792-0.591-1.799-0.886-3.018-0.886
	c-1.335,0-2.362,0.282-3.084,0.847c-0.717,0.565-1.195,1.158-1.433,1.78c-0.141,0.245-0.23,0.502-0.275,0.771
	c-0.024,0.177-0.037,0.421-0.037,0.734c0,1.369,0.502,2.433,1.509,3.191c1.051,0.811,2.183,1.479,3.396,2.006
	c0.25,0.157,0.458,0.261,0.621,0.311c0.084,0.031,0.183,0.077,0.299,0.137c0.117,0.06,0.224,0.105,0.326,0.137
	c0.024,0.013,0.057,0.032,0.094,0.057c0.038,0.025,0.07,0.046,0.095,0.057c0.101,0.051,0.18,0.075,0.235,0.075
	c1.548,0.772,3.054,1.728,4.521,2.862c1.387,1.111,2.082,2.831,2.082,5.159c0,2.216-0.784,4.146-2.357,5.79
	c-1.548,1.619-3.658,2.429-6.336,2.429c-1.9,0-3.47-0.397-4.709-1.193c-1.176-0.758-2.114-1.632-2.82-2.623
	c-0.32-0.452-0.554-0.822-0.699-1.11c-0.213-0.344-0.379-0.705-0.499-1.081l2.471-1.231c0,0.113,0.038,0.229,0.113,0.348
	c0.051,0.15,0.104,0.252,0.16,0.303c0.454,1.13,1.186,2.16,2.192,3.089c1.01,0.929,2.352,1.394,4.024,1.394
	c1.754,0,3.131-0.581,4.131-1.743c1.03-1.188,1.547-2.589,1.547-4.203c0-1.206-0.296-2.187-0.888-2.939
	c-0.572-0.704-1.42-1.41-2.547-2.12c-0.376-0.184-0.775-0.387-1.196-0.613c-0.692-0.346-1.17-0.578-1.436-0.698
	c-1.871-0.872-3.496-1.861-4.865-2.968c-1.441-1.1-2.161-2.683-2.161-4.75c0-0.49,0.026-0.876,0.075-1.159
	c0.083-0.427,0.2-0.839,0.351-1.234c0.383-1.005,1.103-1.919,2.159-2.742c1.1-0.823,2.711-1.234,4.83-1.234
	c0.42,0,0.923,0.038,1.509,0.113c0.648,0.082,1.237,0.223,1.772,0.425c0.673,0.265,1.368,0.678,2.086,1.237
	c0.672,0.554,1.241,1.328,1.706,2.322L253.623,55.714z"/>
<path fill="#04d178" d="M90.256,82.851c5.809,0,9.74-3.932,9.74-9.739V9.74c0-5.809-3.932-9.74-9.74-9.74H9.741
	C3.931-0.001,0,3.931,0,9.74v78.909l4.996-5.793l0,0V9.74C5,7.123,7.122,5.002,9.741,4.997h80.516
	C92.874,5.002,94.995,7.123,95,9.74v63.372c-0.004,2.617-2.125,4.737-4.744,4.742H17.152l-4.997,4.997l-0.031-0.039"/>
<polygon fill="#04d178" points="24.42,30.748 27.182,30.748 27.182,19.698 30.62,19.698 30.62,16.956 20.983,16.956 20.983,19.698 
	24.42,19.698 "/>
<polygon fill="#04d178" points="39.6,30.748 42.361,30.748 42.361,16.937 39.6,16.937 39.6,22.458 35.465,22.458 35.465,16.937 
	32.706,16.937 32.706,30.748 35.465,30.748 35.465,25.22 39.6,25.22 "/>
<polygon fill="#04d178" points="52.618,27.982 47.438,27.982 47.438,25.22 51.862,25.22 51.862,22.458 47.438,22.458 47.438,19.698 
	52.383,19.698 52.383,16.937 44.672,16.937 44.672,30.748 52.618,30.748 "/>
<polygon fill="#04d178" points="27.317,40.32 21.872,34.255 20.983,34.255 20.983,48.277 23.786,48.277 23.786,40.57 27.317,44.279 
	30.851,40.57 30.834,48.277 33.631,48.277 33.631,34.255 32.764,34.255 "/>
<path fill="#04d178" d="M42.985,34.24c-9.501,0-9.501,14.232,0,14.232C52.487,48.472,52.487,34.24,42.985,34.24z M42.985,45.615
	c-5.521,0-5.521-8.533,0-8.533C48.508,37.08,48.508,45.615,42.985,45.615z"/>
<rect x="65.795" y="34.47" fill="#04d178" width="2.761" height="13.807"/>
<polygon fill="#04d178" points="73.633,45.515 73.633,42.753 78.058,42.753 78.058,39.994 73.633,39.994 73.633,37.232 
	78.579,37.232 78.579,34.47 70.872,34.47 70.872,48.277 78.813,48.277 78.813,45.515 "/>
<path fill="#04d178" d="M25.098,52.005h-4.114V65.81h4.114C34.288,65.81,34.288,52.005,25.098,52.005z M25.098,63.048h-1.354v-8.283
	h1.354C30.465,54.765,30.465,63.048,25.098,63.048z"/>
<path fill="#04d178" d="M42.29,58.896c0.867-0.598,1.237-1.68,1.273-2.723c0.061-2.435-1.468-4.188-3.919-4.188h-5.467V65.81h5.467
	c2.269-0.018,4.092-1.869,4.073-4.137c0-0.006,0-0.012,0-0.018C43.723,60.558,43.189,59.527,42.29,58.896z M36.958,54.743h2.455
	c0.77,0.058,1.346,0.729,1.289,1.497c-0.053,0.688-0.6,1.234-1.289,1.287h-2.455V54.743z M39.413,63.044h-2.455v-2.761h2.455
	c0.75-0.019,1.371,0.575,1.389,1.324c0,0.017,0,0.032,0,0.049c0.011,0.759-0.594,1.382-1.354,1.392
	c-0.012,0.002-0.023,0.002-0.035,0V63.044L39.413,63.044z"/>
<polygon fill="#04d178" points="57.297,41.923 53.661,34.47 50.474,34.47 56.986,48.567 57.607,48.567 64.116,34.47 60.929,34.47 
	"/>
</svg>
